Coordinates
version=1
nRows=5
nColumns=40
inDegrees=yes

Units are S.I. units (second, meters, Newtons, ...)
Angles are in degrees.

endheader
time	pelvis_tilt	pelvis_list	pelvis_rotation	pelvis_tx	pelvis_ty	pelvis_tz	hip_flexion_r	hip_adduction_r	hip_rotation_r	knee_angle_r	knee_angle_r_beta	ankle_angle_r	subtalar_angle_r	mtp_angle_r	hip_flexion_l	hip_adduction_l	hip_rotation_l	knee_angle_l	knee_angle_l_beta	ankle_angle_l	subtalar_angle_l	mtp_angle_l	lumbar_extension	lumbar_bending	lumbar_rotation	arm_flex_r	arm_add_r	arm_rot_r	elbow_flex_r	pro_sup_r	wrist_flex_r	wrist_dev_r	arm_flex_l	arm_add_l	arm_rot_l	elbow_flex_l	pro_sup_l	wrist_flex_l	wrist_dev_l
      8.64778571	     -0.02003680	     -3.95070963	     13.64739758	      1.01935640	      0.92364271	      0.53073142	      0.70785712	      5.43569376	    -17.15637577	     17.02776809	     17.02776809	     18.43394974	     -6.76076658	     -2.48065396	     25.35363041	     -8.69614924	      5.74760809	     24.01950373	     24.01950373	      8.47489059	     -4.72796567	      4.23333192	     -7.65984901	      3.06870749	      6.12524381	     51.56364790	    -20.22791549	     -5.05821026	     75.24447642	     44.89627790	      0.00000000	      0.00000000	    -18.75069852	     -8.94912756	     20.20843681	     29.21582528	     43.68095259	      0.00000000	      0.00000000
      8.67057143	      0.12491120	     -4.11499159	     13.34786021	      1.01922019	      0.92369555	      0.52739746	     -0.27442756	      5.58928207	    -17.01493390	     16.05746781	     16.05746781	     18.43618268	     -6.05153327	     -2.49434787	     24.91479163	     -8.90102367	      5.27606413	     24.19240492	     24.19240492	      8.42967047	     -4.27219500	      3.57611444	     -7.60451783	      3.11977463	      5.91659824	     51.57503320	    -19.55556890	     -4.67036743	     75.90898845	     44.86720616	      0.00000000	      0.00000000	    -18.63942210	     -9.15062710	     20.23062298	     29.13773669	     43.69981165	      0.00000000	      0.00000000
      8.69335714	      0.01754878	     -4.17013397	     12.97804830	      1.01892108	      0.92336006	      0.52386614	     -0.66851935	      5.44884873	    -16.69989394	     15.76997661	     15.76997661	     18.63877463	     -5.78614127	     -2.56948179	     24.76086562	     -8.85631414	      4.98956797	     24.54233945	     24.54233945	      8.43171824	     -4.47121120	      3.35067421	     -7.28877170	      3.02552092	      5.99863928	     51.53261214	    -19.23324331	     -4.48392154	     76.05162099	     44.85755643	      0.00000000	      0.00000000	    -18.27391286	     -9.50977265	     20.16400120	     29.17070858	     43.71955339	      0.00000000	      0.00000000
      8.71614286	     -0.06213672	     -4.22175309	     12.60507190	      1.01871363	      0.92311593	      0.52016600	     -1.14010244	      5.31146350	    -16.36607376	     15.39138586	     15.39138586	     18.80512544	     -5.45739277	     -2.61186293	     24.60639908	     -8.79856796	      4.74846768	     24.99559458	     24.99559458	      8.52364557	     -4.78822466	      3.10683617	     -7.00819613	      2.87815330	      6.02662483	     51.47496353	    -18.91369872	     -4.29226249	     76.19342093	     44.84735703	      0.00000000	      0.00000000	    -17.81674930	     -9.90342193	     20.08454655	     29.21965463	     43.74139893	      0.00000000	      0.00000000
      8.73892857	      0.05970498	     -4.38285010	     12.30163319	      1.01875931	      0.92319378	      0.51615294	     -2.13712750	      5.38999207	    -16.28259315	     14.37507503	     14.37507503	     18.73944832	     -4.70195334	     -2.60405746	     24.35459419	     -8.82923932	      4.73800774	     25.61397263	     25.61397263	      8.57896595	     -5.41098494	      2.51879137	     -6.94610050	      3.01033412	      5.98530083	     51.39610317	    -18.81601319	     -3.96586267	     76.58452140	     44.82887957	      0.00000000	      0.00000000	    -17.33560318	    -10.21846702	     19.96311286	     29.25567816	     43.78414390	      0.00000000	      0.00000000
